:SAMPLES-PER-SECOND 30
:FRAME-RANGE 1-1770
:FULLY-SPECIFIED
:DEGREES
56
root  -39.6984 37.5531 -49.1214 -5.19303 48.5312 -4.65738
RightUpLeg  -26.1712 -3.804 4.70153
RightLeg  24.8767 -6.64128 -3.57229
RightFoot  0.950872 -0.171889 1.65578
RightToes  6.35937e-011 1.2921e-014 -6.02303e-014
Spine  5.59534 -2.8865 3.43025
Spine1  3.9717 -3.34652 2.10181
HEad  -4.04708 3.78661 -5.98923
LeftShoulder1  1.86306 -1.22763 -33.3338
LeftArm  27.7694 -16.2327 -46.7364
LeftForeArm  10.3109 -28.4148 -5.58835
LeftHand  0.177694 -4.61325 -1.77224
RightShoulder  4.66303 4.8418 48.9797
RightArm  11.8006 -5.981 9.92924
RightForeArm  17.8175 1.87429 16.6915
RightHand  0.0450229 4.04192 0.283276
LeftUpLeg  14.4535 10.5624 3.386
LeftLeg  28.5201 -0.33529 0.149574
LeftFoot  -18.7065 -0.845385 -14.8
LeftToes  3.18074e-010 1.39432e-010 -7.71186e-011
57
root  -38.659 37.3743 -48.2065 -6.75592 48.7897 -7.07453
RightUpLeg  -26.2001 -5.08198 6.41752
RightLeg  28.9769 -5.79908 -3.70777
RightFoot  -2.70129 -0.127036 1.43764
RightToes  6.35937e-011 1.2921e-014 -6.02303e-014
Spine  6.25033 -3.03908 6.23368
Spine1  4.05338 -3.22233 3.04143
HEad  -3.88176 4.03417 -6.67391
LeftShoulder1  1.85274 -1.23105 -33.0892
LeftArm  26.636 -14.5822 -46.5364
LeftForeArm  10.9467 -28.2009 -5.50326
LeftHand  0.185627 -4.73704 -1.83362
RightShoulder  5.45066 6.36123 48.4202
RightArm  5.6763 -3.9396 9.63103
RightForeArm  20.3283 1.17393 16.085
RightHand  0.0299483 4.28838 0.0792344
LeftUpLeg  8.09958 10.6305 6.02276
LeftLeg  41.7915 0.686688 1.04825
LeftFoot  -8.19365 0.59331 -19.6483
LeftToes  3.18074e-010 1.39432e-010 -7.71186e-011
58
root  -37.7251 37.0783 -47.4627 -8.40966 49.3148 -10.1148
RightUpLeg  -26.818 -6.22157 8.28562
RightLeg  32.8479 -5.16207 -3.84487
RightFoot  -6.4805 -0.126378 1.93961
RightToes  6.35937e-011 1.2921e-014 -6.02303e-014
Spine  6.77553 -3.12575 10.1252
Spine1  4.28454 -2.76142 3.47102
HEad  -4.2398 3.45848 -6.70925
LeftShoulder1  1.86732 -1.29702 -32.8571
LeftArm  25.8714 -13.9025 -46.1254
LeftForeArm  11.7138 -27.6917 -5.34295
LeftHand  0.1937 -4.87118 -1.89254
RightShoulder  6.22165 7.85838 47.9737
RightArm  2.19774 -1.57958 9.30862
RightForeArm  20.1481 2.49833 15.378
RightHand  -0.0240523 4.00874 -0.566365
LeftUpLeg  -0.842669 9.84593 8.07617
LeftLeg  55.432 1.20374 2.37681
LeftFoot  7.31097 2.34673 -14.4984
LeftToes  3.18074e-010 1.39432e-010 -7.71186e-011
59
root  -36.7558 36.901 -46.7162 -9.42319 49.3353 -11.5893
RightUpLeg  -26.2449 -6.42474 8.99633
RightLeg  35.7911 -4.87478 -4.05059
RightFoot  -9.88609 -0.101572 2.71513
RightToes  6.35937e-011 1.2921e-014 -6.02303e-014
Spine  7.77035 -2.83266 12.8362
Spine1  4.22632 -1.91289 3.37849
HEad  -4.56599 2.47939 -6.21003
LeftShoulder1  1.86954 -1.31417 -32.7654
LeftArm  24.2512 -13.3516 -44.9167
LeftForeArm  12.9654 -27.8388 -5.30839
LeftHand  0.199602 -4.83591 -1.96828
RightShoulder  7.14745 9.58936 47.8148
RightArm  0.167034 1.40799 8.61188
RightForeArm  19.9493 4.22139 14.7153
RightHand  -0.111404 4.07255 -1.63798
LeftUpLeg  -8.2656 10.2436 8.96671
LeftLeg  65.3155 1.11367 3.32742
LeftFoot  11.0941 1.50089 -7.90236
LeftToes  3.18074e-010 1.39432e-010 -7.71186e-011
60
root  -35.6691 37.0629 -45.8657 -9.13381 49.0478 -10.919
RightUpLeg  -23.7221 -5.96471 8.21192
RightLeg  36.3462 -4.85713 -4.11743
RightFoot  -12.403 -0.0517552 3.49135
RightToes  6.35937e-011 1.2921e-014 -6.02303e-014
Spine  8.76008 -2.27946 13.3558
Spine1  3.58423 -1.16032 3.16407
HEad  -4.92856 1.94681 -5.66095
LeftShoulder1  1.84826 -1.27359 -32.6494
LeftArm  21.5681 -12.0899 -42.9893
LeftForeArm  13.8119 -28.3565 -5.38183
LeftHand  0.170346 -4.76822 -1.65139
RightShoulder  8.17319 11.6816 47.1187
RightArm  -2.7973 4.68056 8.40946
RightForeArm  21.8953 5.17949 13.9783
RightHand  -0.172763 4.13974 -2.3778
LeftUpLeg  -14.6037 11.3139 8.42508
LeftLeg  70.5261 0.795831 3.37431
LeftFoot  6.80264 1.10645 -7.18341
LeftToes  3.18074e-010 1.39432e-010 -7.71186e-011
61
root  -34.5292 37.2797 -45.023 -8.62862 48.8536 -10.0263
RightUpLeg  -20.7849 -5.77578 7.18238
RightLeg  36.0591 -4.71249 -3.96658
RightFoot  -14.5188 0.0121257 3.98454
RightToes  6.35937e-011 1.2921e-014 -6.02303e-014
Spine  9.39951 -1.81858 13.7275
Spine1  2.90319 -0.616074 2.82804
HEad  -4.84872 1.56134 -5.39791
LeftShoulder1  1.7989 -1.16755 -32.4701
LeftArm  18.4614 -10.4479 -40.6347
LeftForeArm  14.0698 -29.1753 -5.55973
LeftHand  0.167102 -4.71228 -1.62682
RightShoulder  8.93841 13.5393 45.8649
RightArm  -3.99243 8.04128 8.99115
RightForeArm  21.4098 7.05982 13.2091
RightHand  -0.214787 4.01852 -2.91874
LeftUpLeg  -20.3374 12.4829 7.47455
LeftLeg  71.3782 0.215792 1.61285
LeftFoot  4.4508 0.999322 -7.3943
LeftToes  3.18074e-010 1.39432e-010 -7.71186e-011
62
root  -33.3378 37.5932 -44.1775 -7.9021 48.6115 -8.96278
RightUpLeg  -17.2676 -5.99427 5.93449
RightLeg  34.4546 -4.14225 -3.33371
RightFoot  -16.1016 0.0821863 4.60146
RightToes  6.35937e-011 1.2921e-014 -6.02303e-014
Spine  9.60385 -1.20559 14.1544
Spine1  2.16673 0.0419092 1.90245
HEad  -4.54319 1.04825 -5.5041
LeftShoulder1  1.77096 -1.11157 -32.3313
LeftArm  15.6743 -8.87823 -38.2406
LeftForeArm  14.8638 -30.0184 -5.7165
LeftHand  0.164436 -4.69107 -1.60089
RightShoulder  9.67983 15.3799 44.7667
RightArm  -2.12651 10.5737 9.2398
RightForeArm  17.1371 10.7144 11.882
RightHand  -0.26217 3.80628 -3.56983
LeftUpLeg  -24.98 13.8715 6.12276
LeftLeg  67.9177 -0.354497 -0.224976
LeftFoot  1.9298 0.749125 -6.53662
LeftToes  3.18074e-010 1.39432e-010 -7.71186e-011
63
root  -32.1421 37.9432 -43.3413 -6.82267 48.1114 -7.64332
RightUpLeg  -13.5337 -5.96635 4.51582
RightLeg  31.9313 -3.66834 -2.73164
RightFoot  -17.1454 0.143682 5.12479
RightToes  6.35937e-011 1.2921e-014 -6.02303e-014
Spine  9.72792 -0.387528 14.3616
Spine1  1.2661 0.897552 0.592894
HEad  -3.93782 0.334573 -5.68852
LeftShoulder1  1.72181 -1.00312 -32.1627
LeftArm  12.9326 -7.37221 -35.9022
LeftForeArm  15.8733 -31.1957 -5.94594
LeftHand  0.172359 -4.65444 -1.70065
RightShoulder  10.0943 16.7443 43.4551
RightArm  0.62957 12.9276 9.93517
RightForeArm  13.1215 14.5332 9.82713
RightHand  -0.310419 3.83471 -4.16729
LeftUpLeg  -28.2616 15.5039 4.558
LeftLeg  60.4984 -0.696465 -0.777181
LeftFoot  0.0927083 0.599641 -5.99329
LeftToes  3.18074e-010 1.39432e-010 -7.71186e-011
64
root  -30.9749 38.3088 -42.517 -5.51189 47.6044 -6.2372
RightUpLeg  -9.74222 -5.89386 3.01231
RightLeg  28.6322 -3.25803 -2.1795
RightFoot  -17.5766 0.17661 5.42753
RightToes  6.35937e-011 1.2921e-014 -6.02303e-014
Spine  9.70006 0.457483 14.0272
Spine1  0.486295 1.70169 -0.620833
HEad  -3.19835 -0.406628 -5.95211
LeftShoulder1  1.65786 -0.858219 -31.9636
LeftArm  10.0138 -5.87465 -33.6587
LeftForeArm  16.7444 -32.7308 -6.28046
LeftHand  0.184305 -4.6439 -1.84134
RightShoulder  10.5204 18.0768 42.4095
RightArm  4.42698 14.8225 10.4721
RightForeArm  8.59239 18.6815 7.026
RightHand  -0.352437 3.75679 -4.73036
LeftUpLeg  -29.9085 17.3363 2.92135
LeftLeg  49.3005 -0.270674 0.0876192
LeftFoot  -0.814344 0.552066 -5.93753
LeftToes  3.18074e-010 1.39432e-010 -7.71186e-011
65
root  -29.8276 38.6422 -41.7146 -4.21681 47.2651 -4.94551
RightUpLeg  -5.85502 -5.92446 1.5118
RightLeg  24.7414 -2.83053 -1.61358
RightFoot  -17.656 0.199748 5.78793
RightToes  6.35937e-011 1.2921e-014 -6.02303e-014
Spine  9.36651 1.13236 13.267
Spine1  0.28078 2.34031 -1.77895
HEad  -2.79225 -0.930933 -5.85417
LeftShoulder1  1.59412 -0.734406 -31.5672
LeftArm  6.94893 -4.41842 -31.7164
LeftForeArm  17.6923 -34.539 -6.69557
LeftHand  0.188999 -4.55811 -1.88696
RightShoulder  10.9592 19.3676 41.607
RightArm  6.1141 16.5506 10.834
RightForeArm  6.5596 22.3853 4.86088
RightHand  -0.377944 3.77775 -5.0434
LeftUpLeg  -29.715 19.1227 1.33921
LeftLeg  35.2431 -1.43036 -0.73571
LeftFoot  -0.612166 0.563938 -5.96432
LeftToes  3.18074e-010 1.39432e-010 -7.71186e-011
66
root  -28.6317 38.8442 -40.9169 -3.27574 47.0821 -3.71146
RightUpLeg  -1.88831 -5.34024 0.0566513
RightLeg  21.433 -3.07309 -1.48109
RightFoot  -17.929 0.23366 6.16828
RightToes  6.35937e-011 1.2921e-014 -6.02303e-014
Spine  8.72896 1.59684 12.218
Spine1  0.826322 2.83864 -2.70299
HEad  -2.50354 -1.2505 -5.51216
LeftShoulder1  1.54574 -0.670422 -30.9805
LeftArm  4.28605 -3.34637 -30.0653
LeftForeArm  18.4908 -36.5522 -7.19719
LeftHand  0.191162 -4.37515 -1.85782
RightShoulder  11.4188 20.5726 41.1224
RightArm  4.12149 18.1639 10.8969
RightForeArm  8.38145 25.3107 4.98595
RightHand  -0.500757 3.14418 -7.04167
LeftUpLeg  -27.9126 19.5505 0.184173
LeftLeg  21.9513 -3.3166 -1.14807
LeftFoot  -0.0683403 0.695038 -7.03391
LeftToes  3.18074e-010 1.39432e-010 -7.71186e-011
67
root  -27.3302 38.8764 -40.1048 -2.83811 47.2226 -2.38821
RightUpLeg  2.30214 -4.05414 -1.29282
RightLeg  19.3082 -4.24567 -1.99751
RightFoot  -18.7417 0.38124 7.85212
RightToes  6.35937e-011 1.2921e-014 -6.02303e-014
Spine  7.92339 1.78791 10.9142
Spine1  1.76123 3.07484 -3.30706
HEad  -1.61183 -1.49818 -4.72756
LeftShoulder1  1.49974 -0.62583 -30.2587
LeftArm  2.34056 -3.16743 -28.7649
LeftForeArm  18.9579 -38.2324 -7.65058
LeftHand  0.192181 -4.19357 -1.99175
RightShoulder  11.9886 21.8096 41.0323
RightArm  2.30605 19.3674 11.0415
RightForeArm  11.3516 27.5322 5.32838
RightHand  -0.502255 3.15031 -7.05735
LeftUpLeg  -24.978 16.4058 0.59346
LeftLeg  13.4519 -1.119 -0.63523
LeftFoot  -0.46246 0.552189 -5.76815
LeftToes  3.18074e-010 1.39432e-010 -7.71186e-011
68
root  -25.9177 38.8173 -39.2824 -2.87892 47.8206 -1.183
RightUpLeg  6.29108 -4.35098 -3.19954
RightLeg  18.8742 -3.86431 -1.82602
RightFoot  -19.4638 0.552241 9.62113
RightToes  6.35937e-011 1.2921e-014 -6.02303e-014
Spine  7.23819 1.81985 9.36397
Spine1  2.43284 3.11483 -3.59162
HEad  0.192416 -1.93938 -4.35877
LeftShoulder1  1.46083 -0.586309 -29.6492
LeftArm  1.52706 -4.2486 -27.9441
LeftForeArm  19.1126 -39.1541 -7.91557
LeftHand  0.189149 -4.16042 -2.02625
RightShoulder  12.365 22.4544 41.2749
RightArm  1.57823 19.9307 11.3433
RightForeArm  13.6202 29.8531 5.74901
RightHand  -0.497389 3.18413 -6.96608
LeftUpLeg  -22.3056 11.2641 1.42199
LeftLeg  10.936 4.36183 -0.441791
LeftFoot  2.85832 0.276295 -2.35779
LeftToes  3.18074e-010 1.39432e-010 -7.71186e-011
69
root  -24.4152 38.5161 -38.4962 -3.14176 48.468 -0.52586
RightUpLeg  7.86322 -4.02031 -4.91319
RightLeg  23.2055 -2.9206 -1.59541
RightFoot  -20.6002 0.943902 13.3351
RightToes  6.35937e-011 1.2921e-014 -6.02303e-014
Spine  6.99301 1.83101 8.2064
Spine1  2.0279 3.05409 -3.62531
HEad  1.65452 -2.56444 -3.64856
LeftShoulder1  1.42809 -0.511696 -29.494
LeftArm  1.27928 -6.27458 -27.429
LeftForeArm  19.442 -40.2413 -8.22851
LeftHand  0.182835 -4.00597 -1.99217
RightShoulder  12.4604 22.296 41.9004
RightArm  1.94823 20.1999 11.8408
RightForeArm  15.1157 32.665 6.36095
RightHand  -0.48805 3.27763 -6.77241
LeftUpLeg  -21.96 12.4355 -0.350789
LeftLeg  15.5484 1.3884 0.529249
LeftFoot  6.13957 0.129391 -1.08465
LeftToes  3.18074e-010 1.39432e-010 -7.71186e-011
70
root  -23.0577 38.2597 -37.806 -2.26851 49.3558 1.4139
RightUpLeg  6.26501 -2.44627 -6.79368
RightLeg  32.5004 -2.83184 -2.18954
RightFoot  -18.9753 1.19049 19.6099
RightToes  6.35937e-011 1.2921e-014 -6.02303e-014
Spine  7.65736 1.8532 5.71756
Spine1  1.57178 2.90234 -3.51627
HEad  2.176 -3.53588 -2.90185
LeftShoulder1  1.47518 -0.610155 -29.7935
LeftArm  1.42959 -9.59832 -27.5972
LeftForeArm  19.7303 -40.9507 -8.43387
LeftHand  0.132254 -3.74537 -1.42413
RightShoulder  12.5089 21.8586 42.8665
RightArm  1.80737 20.1748 12.2007
RightForeArm  16.8518 35.6901 7.06042
RightHand  -0.520018 2.90492 -7.49704
LeftUpLeg  -22.2341 10.466 -1.8162
LeftLeg  21.9916 2.34441 1.37402
LeftFoot  2.22867 0.0604106 -0.621329
LeftToes  3.18074e-010 1.39432e-010 -7.71186e-011
